<svg aria-hidden="true" style="position: absolute; width: 0; height: 0; overflow: hidden;" version="1.1" xmlns="http://www.w3.org/2000/svg" xmlns:xlink="http://www.w3.org/1999/xlink">
<defs>
<symbol id="ArrowLeft" viewBox="0 0 32 32">
<path  stroke-linejoin="round" stroke-linecap="round" stroke-miterlimit="4" stroke-width="2" d="M5.333 16h21.333M5.333 16l8-8M5.333 16l8 8"></path>
</symbol>
<symbol id="camera" viewBox="0 0 32 32">
<path fill="none" stroke="#54adff" style="stroke: var(--color1, #54adff)" stroke-linejoin="round" stroke-linecap="butt" stroke-miterlimit="4" stroke-width="2" d="M16 21.333c2.209 0 4-1.791 4-4s-1.791-4-4-4c-2.209 0-4 1.791-4 4s1.791 4 4 4z"></path>
<path fill="none" stroke="#54adff" style="stroke: var(--color1, #54adff)" stroke-linejoin="round" stroke-linecap="butt" stroke-miterlimit="4" stroke-width="2" d="M4 12c0-1.473 1.194-2.667 2.667-2.667h3.333c0.736 0 1.333-0.597 1.333-1.333s0.597-1.333 1.333-1.333h6.667c0.736 0 1.333 0.597 1.333 1.333s0.597 1.333 1.333 1.333h3.333c1.473 0 2.667 1.194 2.667 2.667v10.667c0 1.473-1.194 2.667-2.667 2.667h-18.667c-1.473 0-2.667-1.194-2.667-2.667v-10.667z"></path>
</symbol>
<symbol id="check" viewBox="0 0 32 32">
<path fill="none" stroke="#54adff" style="stroke: var(--color1, #54adff)" stroke-linejoin="round" stroke-linecap="round" stroke-miterlimit="4" stroke-width="2" d="M26.667 9.333l-14.667 14.667-6.667-6.667"></path>
</symbol>
<symbol id="check-round" viewBox="0 0 32 32">
<path fill="none" stroke="#54adff" style="stroke: var(--color1, #54adff)" stroke-linejoin="round" stroke-linecap="round" stroke-miterlimit="4" stroke-width="2" d="M22.667 12l-9.333 9.333-4-4M10.667 26.667h10.667c2.945 0 5.333-2.388 5.333-5.333v-10.667c0-2.946-2.388-5.333-5.333-5.333h-10.667c-2.946 0-5.333 2.388-5.333 5.333v10.667c0 2.945 2.388 5.333 5.333 5.333z"></path>
</symbol>
<symbol id="chevron-down" viewBox="0 0 32 32">
<path fill="none" stroke="#54adff" style="stroke: var(--color1, #54adff)" stroke-linejoin="round" stroke-linecap="round" stroke-miterlimit="4" stroke-width="2" d="M5.333 12l10.667 10.667 10.667-10.667"></path>
</symbol>
<symbol id="chevron-up" viewBox="0 0 32 32">
<path fill="none" stroke="#54adff" style="stroke: var(--color1, #54adff)" stroke-linejoin="round" stroke-linecap="round" stroke-miterlimit="4" stroke-width="2" d="M26.667 20l-10.667-10.667-10.667 10.667"></path>
</symbol>
<symbol id="clock" viewBox="0 0 32 32">
<path fill="none" stroke="#54adff" style="stroke: var(--color1, #54adff)" stroke-linejoin="round" stroke-linecap="round" stroke-miterlimit="4" stroke-width="1.92" d="M16.33 9.6v6.4l3.84 3.84M27.85 16c0 6.362-5.158 11.52-11.52 11.52s-11.52-5.158-11.52-11.52c0-6.362 5.158-11.52 11.52-11.52s11.52 5.158 11.52 11.52z"></path>
</symbol>
<symbol id="cross-small" viewBox="0 0 32 32">
<path fill="none" stroke="#54adff" style="stroke: var(--color1, #54adff)" stroke-linejoin="round" stroke-linecap="round" stroke-miterlimit="4" stroke-width="2" d="M25.333 6.667l-18.667 18.667M6.667 6.667l18.667 18.667"></path>
</symbol>
<symbol id="cross-small2" viewBox="0 0 32 32">
<path fill="none" stroke="#54adff" style="stroke: var(--color1, #54adff)" stroke-linejoin="round" stroke-linecap="round" stroke-miterlimit="4" stroke-width="2" d="M21.333 10.667l-10.667 10.667M10.667 10.667l10.667 10.667"></path>
</symbol>
<symbol id="edit-2" viewBox="0 0 32 32">
<path fill="#54adff" style="fill: var(--color1, #54adff)" d="M6.667 20.941l-0.707-0.707c-0.188 0.187-0.293 0.442-0.293 0.707h1zM20.941 6.667l0.707-0.707c-0.391-0.391-1.024-0.391-1.414 0l0.707 0.707zM25.333 11.059l0.707 0.707c0.391-0.391 0.391-1.024 0-1.414l-0.707 0.707zM11.059 25.333v1c0.265 0 0.52-0.105 0.707-0.293l-0.707-0.707zM6.667 25.333h-1c0 0.552 0.448 1 1 1v-1zM15.451 24.333c-0.552 0-1 0.448-1 1s0.448 1 1 1v-2zM24.784 26.333c0.552 0 1-0.448 1-1s-0.448-1-1-1v2zM7.374 21.648l14.274-14.274-1.414-1.414-14.275 14.275 1.414 1.414zM20.234 7.374l4.392 4.392 1.414-1.414-4.392-4.392-1.414 1.414zM24.626 10.352l-14.275 14.275 1.414 1.414 14.274-14.274-1.414-1.414zM11.059 24.333h-4.392v2h4.392v-2zM7.667 25.333v-4.392h-2v4.392h2zM16.94 10.668l4.392 4.392 1.414-1.414-4.392-4.392-1.414 1.414zM15.451 26.333h9.333v-2h-9.333v2z"></path>
</symbol>
<symbol id="icon-edit-2" viewBox="0 0 32 32">
<path fill="#54adff" style="fill: var(--color1, #54adff)" d="M6.667 20.941l-0.707-0.707c-0.188 0.187-0.293 0.442-0.293 0.707h1zM20.941 6.667l0.707-0.707c-0.391-0.391-1.024-0.391-1.414 0l0.707 0.707zM25.333 11.059l0.707 0.707c0.391-0.391 0.391-1.024 0-1.414l-0.707 0.707zM11.059 25.333v1c0.265 0 0.52-0.105 0.707-0.293l-0.707-0.707zM6.667 25.333h-1c0 0.552 0.448 1 1 1v-1zM15.451 24.333c-0.552 0-1 0.448-1 1s0.448 1 1 1v-2zM24.784 26.333c0.552 0 1-0.448 1-1s-0.448-1-1-1v2zM7.374 21.648l14.274-14.274-1.414-1.414-14.275 14.275 1.414 1.414zM20.234 7.374l4.392 4.392 1.414-1.414-4.392-4.392-1.414 1.414zM24.626 10.352l-14.275 14.275 1.414 1.414 14.274-14.274-1.414-1.414zM11.059 24.333h-4.392v2h4.392v-2zM7.667 25.333v-4.392h-2v4.392h2zM16.94 10.668l4.392 4.392 1.414-1.414-4.392-4.392-1.414 1.414zM15.451 26.333h9.333v-2h-9.333v2z"></path>
</symbol>
<symbol id="eye-closed" viewBox="0 0 32 32">
<path fill="none" stroke="#54adff" style="stroke: var(--color1, #54adff)" stroke-linejoin="round" stroke-linecap="round" stroke-miterlimit="4" stroke-width="2" d="M13.019 7.060c0.936-0.251 1.931-0.394 2.981-0.394 8.485 0 13.333 9.333 13.333 9.333s-1.105 2.128-3.184 4.351M5.799 11.704c-2.045 2.203-3.132 4.296-3.132 4.296s4.848 9.333 13.333 9.333c1.069 0 2.081-0.148 3.033-0.407M15.333 19.945c-1.446-0.243-2.628-1.26-3.106-2.611M16.667 12.055c1.675 0.281 2.997 1.603 3.278 3.278M4 4l24 24"></path>
</symbol>
<symbol id="eye-open" viewBox="0 0 32 32">
<path fill="none" stroke="#54adff" style="stroke: var(--color1, #54adff)" stroke-linejoin="round" stroke-linecap="round" stroke-miterlimit="4" stroke-width="2" d="M2.667 16c0 0 4.848-9.333 13.333-9.333s13.333 9.333 13.333 9.333-4.849 9.333-13.333 9.333c-8.485 0-13.333-9.333-13.333-9.333z"></path>
<path fill="none" stroke="#54adff" style="stroke: var(--color1, #54adff)" stroke-linejoin="round" stroke-linecap="round" stroke-miterlimit="4" stroke-width="2" d="M16 20c2.209 0 4-1.791 4-4s-1.791-4-4-4c-2.209 0-4 1.791-4 4s1.791 4 4 4z"></path>
</symbol>
<symbol id="female" viewBox="0 0 32 32">
<path fill="none" stroke="#54adff" style="stroke: var(--color1, #54adff)" stroke-linejoin="round" stroke-linecap="round" stroke-miterlimit="4" stroke-width="1.92" d="M16.33 17.28c3.535 0 6.4-2.865 6.4-6.4s-2.865-6.4-6.4-6.4c-3.535 0-6.4 2.865-6.4 6.4s2.865 6.4 6.4 6.4zM16.33 17.28v10.24M12.49 23.68h7.68"></path>
</symbol>
<symbol id="filters-2" viewBox="0 0 32 32">
<path fill="none" stroke="#54adff" style="stroke: var(--color1, #54adff)" stroke-linejoin="miter" stroke-linecap="round" stroke-miterlimit="4" stroke-width="2" d="M18.667 6.667c0-1.473-1.194-2.667-2.667-2.667s-2.667 1.194-2.667 2.667M18.667 6.667c0 1.473-1.194 2.667-2.667 2.667s-2.667-1.194-2.667-2.667M18.667 6.667h8M13.333 6.667h-8M21.333 16c0 1.473 1.194 2.667 2.667 2.667s2.667-1.194 2.667-2.667c0-1.473-1.194-2.667-2.667-2.667s-2.667 1.194-2.667 2.667zM21.333 16h-16M10.667 25.333c0-1.473-1.194-2.667-2.667-2.667s-2.667 1.194-2.667 2.667c0 1.473 1.194 2.667 2.667 2.667s2.667-1.194 2.667-2.667zM10.667 25.333h16"></path>
</symbol>
<symbol id="filters-3" viewBox="0 0 32 32">
<path fill="none" stroke="" stroke-linejoin="round" stroke-linecap="round" stroke-miterlimit="4" stroke-width="1.92" d="M6.090 5.76l6.4 10.24v7.68l7.68 3.84v-11.52l6.4-10.24h-20.48z"></path>
</symbol>
<symbol id="heart" viewBox="0 0 32 32">
<path fill="" stroke="" style="stroke: var(--color1, #54adff)" stroke-linejoin="round" stroke-linecap="round" stroke-miterlimit="4" stroke-width="2" d="M5.775 16.063l10.225 10.603 10.225-10.603c1.137-1.179 1.775-2.777 1.775-4.444 0-3.471-2.714-6.285-6.061-6.285-1.607 0-3.149 0.662-4.286 1.841l-1.653 1.715-1.653-1.715c-1.137-1.179-2.678-1.841-4.286-1.841-3.347 0-6.061 2.814-6.061 6.285 0 1.667 0.639 3.266 1.775 4.444z"></path>
</symbol>
<symbol id="location-1" viewBox="0 0 32 32">
<path fill="none" stroke="#54adff" style="stroke: var(--color1, #54adff)" stroke-linejoin="round" stroke-linecap="round" stroke-miterlimit="4" stroke-width="1.92" d="M26.57 14.72c0 5.655-4.585 10.24-10.24 12.8-5.655-2.56-10.24-7.145-10.24-12.8s4.585-10.24 10.24-10.24c5.655 0 10.24 4.585 10.24 10.24z"></path>
<path fill="none" stroke="#54adff" style="stroke: var(--color1, #54adff)" stroke-linejoin="round" stroke-linecap="round" stroke-miterlimit="4" stroke-width="1.92" d="M20.17 14.72c0 2.121-1.719 3.84-3.84 3.84s-3.84-1.719-3.84-3.84c0-2.121 1.719-3.84 3.84-3.84s3.84 1.719 3.84 3.84z"></path>
</symbol>
<symbol id="logout" viewBox="0 0 32 32">
<path fill="none" stroke="#54adff" style="stroke: var(--color1, #54adff)" stroke-linejoin="round" stroke-linecap="round" stroke-miterlimit="4" stroke-width="2" d="M18.667 5.333h5.333c1.473 0 2.667 1.194 2.667 2.667v16c0 1.473-1.194 2.667-2.667 2.667h-5.333M4 16h16M4 16l5.333-5.333M4 16l5.333 5.333"></path>
</symbol>
<symbol id="male" viewBox="0 0 32 32">
<path fill="none" stroke="#54adff" style="stroke: var(--color1, #54adff)" stroke-linejoin="round" stroke-linecap="round" stroke-miterlimit="4" stroke-width="1.92" d="M16.33 14.72c-3.535 0-6.4 2.865-6.4 6.4s2.865 6.4 6.4 6.4c3.535 0 6.4-2.865 6.4-6.4s-2.865-6.4-6.4-6.4zM16.33 14.72v-10.24M16.33 4.48l5.12 5.12M16.33 4.48l-5.12 5.12"></path>
</symbol>
<symbol id="menu-hamburger" viewBox="0 0 32 32">
<path fill="none" stroke="#54adff" style="stroke: var(--color1, #54adff)" stroke-linejoin="round" stroke-linecap="round" stroke-miterlimit="4" stroke-width="2" d="M5.333 9.333h21.333M5.333 16h21.333M5.333 22.667h21.333"></path>
</symbol>
<symbol id="plus" viewBox="0 0 32 32">
<path fill="none" stroke="#54adff" style="stroke: var(--color1, #54adff)" stroke-linejoin="miter" stroke-linecap="round" stroke-miterlimit="4" stroke-width="2.6667" d="M16 26.667v-10.667M16 16v-10.667M16 16h10.667M16 16h-10.667"></path>
</symbol>
<symbol id="plus-small" viewBox="0 0 32 32">
<path fill="none" stroke="#54adff" style="stroke: var(--color1, #54adff)" stroke-linejoin="round" stroke-linecap="round" stroke-miterlimit="4" stroke-width="2" d="M16 9.333v13.333M9.333 16h13.333"></path>
</symbol>
<symbol id="plus-small-white" viewBox="0 0 32 32">
<path fill="none" stroke="#fff" style="stroke: var(--color1, #fff)" stroke-linejoin="round" stroke-linecap="round" stroke-miterlimit="4" stroke-width="2" d="M16 9.333v13.333M9.333 16h13.333"></path>
</symbol>
<symbol id="round" viewBox="0 0 32 32">
<path fill="none" stroke="#54adff" style="stroke: var(--color1, #54adff)" stroke-linejoin="round" stroke-linecap="butt" stroke-miterlimit="4" stroke-width="2" d="M5.333 10.667c0-2.946 2.388-5.333 5.333-5.333h10.667c2.945 0 5.333 2.388 5.333 5.333v10.667c0 2.945-2.388 5.333-5.333 5.333h-10.667c-2.946 0-5.333-2.388-5.333-5.333v-10.667z"></path>
</symbol>
<symbol id="search" viewBox="0 0 32 32">
<path fill="#54adff" style="fill: var(--color1, #54adff)" d="M25.96 27.374c0.391 0.391 1.024 0.391 1.414 0s0.391-1.024 0-1.414l-1.414 1.414zM23 14c0 4.971-4.029 9-9 9v2c6.075 0 11-4.925 11-11h-2zM14 23c-4.971 0-9-4.029-9-9h-2c0 6.075 4.925 11 11 11v-2zM5 14c0-4.971 4.029-9 9-9v-2c-6.075 0-11 4.925-11 11h2zM14 5c4.971 0 9 4.029 9 9h2c0-6.075-4.925-11-11-11v2zM27.374 25.96l-5.583-5.583-1.414 1.414 5.583 5.583 1.414-1.414z"></path>
</symbol>
<symbol id="trash-2" viewBox="0 0 32 32">
<path fill="none" stroke="#54adff" style="stroke: var(--color1, #54adff)" stroke-linejoin="round" stroke-linecap="round" stroke-miterlimit="4" stroke-width="2" d="M24 8v16c0 1.473-1.194 2.667-2.667 2.667h-10.667c-1.473 0-2.667-1.194-2.667-2.667v-16M20 8v-1.333c0-1.473-1.194-2.667-2.667-2.667h-2.667c-1.473 0-2.667 1.194-2.667 2.667v1.333M5.333 8h21.333M13.333 13.333v8M18.667 13.333v8"></path>
</symbol>
<symbol id="user-1" viewBox="0 0 32 32">
<path fill="none" stroke="#ffc107" style="stroke: var(--color2, #ffc107)" stroke-linejoin="miter" stroke-linecap="butt" stroke-miterlimit="4" stroke-width="1.7143" d="M16 0.857c8.363 0 15.143 6.78 15.143 15.143s-6.78 15.143-15.143 15.143c-8.363 0-15.143-6.78-15.143-15.143s6.78-15.143 15.143-15.143z"></path>
<path fill="none" stroke="#ffc107" style="stroke: var(--color2, #ffc107)" stroke-linejoin="round" stroke-linecap="round" stroke-miterlimit="4" stroke-width="1.7143" d="M25.143 27.429v-2.286c0-2.525-2.047-4.571-4.571-4.571h-9.143c-2.525 0-4.571 2.047-4.571 4.571v2.286M20.571 11.429c0 2.525-2.047 4.571-4.571 4.571s-4.571-2.047-4.571-4.571c0-2.525 2.047-4.571 4.571-4.571s4.571 2.047 4.571 4.571z"></path>
</symbol>
</defs>
</svg>
